<svg xmlns="http://www.w3.org/2000/svg" version="1.1" xmlns:xlink="http://www.w3.org/1999/xlink" xmlns:svgjs="http://svgjs.dev/svgjs" width="1000" height="1000" viewBox="0 0 1000 1000"><rect width="1000" height="1000" fill="#ffffff"></rect><g transform="matrix(0.7,0,0,0.7,150,150.00004506344095)"><svg viewBox="0 0 280 280" data-background-color="#77d4fc" preserveAspectRatio="xMidYMid meet" height="1000" width="1000" xmlns="http://www.w3.org/2000/svg" xmlns:xlink="http://www.w3.org/1999/xlink"><g id="tight-bounds" transform="matrix(1,0,0,1,0,-0.000018025376391506143)"><svg viewBox="0 0 280 280" height="280" width="280"><g><svg viewBox="0 0 280 280" height="280" width="280"><g><svg viewBox="0 0 280 280" height="280" width="280"><g id="textblocktransform"><svg viewBox="0 0 280 280" height="280" width="280" id="textblock"><g><svg viewBox="0 0 280 280" height="280" width="280"><g transform="matrix(1,0,0,1,90.50252531694167,90.50252531694167)"><svg viewBox="0 0 98.99494936611664 98.99494936611664" height="98.99494936611664" width="98.99494936611664"><g><svg xmlns="http://www.w3.org/2000/svg" xmlns:xlink="http://www.w3.org/1999/xlink" version="1.1" x="0" y="0" viewBox="2.25 2.25 85.5 85.5" enable-background="new 0 0 90 90" xml:space="preserve" height="98.99494936611664" width="98.99494936611664" class="icon-o-0" data-fill-palette-color="accent" id="o-0"><path d="M45 2.25C21.39 2.25 2.25 21.39 2.25 45c0 23.611 19.14 42.75 42.75 42.75 23.611 0 42.75-19.139 42.75-42.75C87.75 21.39 68.611 2.25 45 2.25zM45 79.162c-18.867 0-34.161-15.295-34.161-34.162 0-18.867 15.294-34.161 34.161-34.161S79.162 26.133 79.162 45C79.162 63.867 63.867 79.162 45 79.162z" fill="#000000" data-fill-palette-color="accent"></path><g fill="#0023ff" data-fill-palette-color="accent"><path d="M21.475 67.072c0 0 0.195-25.438 23.562-52.145 0 0 21.116 21.389 23.489 52.145 0 0-3.561-7.122-19.316-13.489 0 0 5.287-2.374 4.641-7.877 0 0-0.576-7.986-8.813-8.094 0 0-8.237 0.216-8.885 8.094 0 0-0.755 4.64 4.749 8.093C40.9 53.799 28.49 57.359 21.475 67.072z" fill="#000000" data-fill-palette-color="accent"></path></g></svg></g></svg></g><path d="M15.549 198.475l2.956-1.141 0.836 2.165 5.113-4.345-3.868-10.018-6.685 0.275 1.033 2.676-2.955 1.141-3.265-8.456 2.955-1.141 0.879 2.276 26.235-0.807 1.956 5.065-19.977 17.014 1.008 2.611-2.955 1.141zM37.012 184.507l-13.192 0.512 3.103 8.039zM23.915 221.67l2.74-1.834c-0.763-1.559-1.192-3.162-1.286-4.808-0.097-1.637 0.108-3.236 0.613-4.797 0.504-1.552 1.285-3.017 2.345-4.397 1.057-1.37 2.353-2.569 3.887-3.595v0c1.673-1.119 3.426-1.896 5.259-2.332 1.839-0.439 3.633-0.529 5.382-0.268 1.745 0.255 3.385 0.856 4.921 1.802 1.541 0.942 2.859 2.231 3.951 3.864v0c1.097 1.639 1.788 3.354 2.075 5.144 0.292 1.786 0.223 3.534-0.207 5.244-0.434 1.704-1.207 3.32-2.319 4.847-1.106 1.523-2.496 2.844-4.168 3.963v0c-1.551 1.038-3.173 1.779-4.865 2.224-1.692 0.445-3.357 0.596-4.994 0.453-1.638-0.143-3.205-0.581-4.702-1.313-1.493-0.727-2.807-1.754-3.942-3.08v0c0.266 0.781 0.417 1.447 0.451 1.999 0.029 0.556 0.097 1.238 0.205 2.044 0.099 0.805 0.35 1.508 0.752 2.11v0c0.388 0.58 0.881 1.001 1.48 1.263 0.595 0.257 1.242 0.256 1.94-0.003v0l0.496 3.036c-0.655 0.263-1.309 0.372-1.961 0.329-0.661-0.045-1.283-0.192-1.865-0.442-0.592-0.251-1.129-0.583-1.613-0.995-0.483-0.412-0.889-0.863-1.217-1.354v0c-0.528-0.789-0.878-1.622-1.049-2.499-0.175-0.882-0.311-1.838-0.408-2.867-0.097-1.029-0.379-1.892-0.844-2.588v0c-0.281-0.419-0.633-0.803-1.057-1.15zM30.448 219.54v0c0.812 1.214 1.796 2.147 2.95 2.797 1.163 0.652 2.395 1.042 3.696 1.171 1.31 0.131 2.647 0.015 4.011-0.346 1.366-0.371 2.667-0.969 3.904-1.797v0c1.264-0.846 2.343-1.867 3.236-3.063 0.893-1.197 1.502-2.443 1.826-3.739 0.329-1.299 0.4-2.573 0.212-3.821-0.194-1.245-0.661-2.422-1.404-3.532v0c-0.812-1.214-1.799-2.152-2.961-2.813-1.163-0.652-2.4-1.043-3.709-1.174-1.304-0.134-2.642-0.014-4.014 0.36-1.37 0.365-2.667 0.957-3.893 1.778v0c-1.402 0.938-2.525 1.989-3.368 3.152-0.844 1.164-1.412 2.339-1.705 3.525-0.293 1.187-0.351 2.456-0.173 3.808 0.183 1.348 0.647 2.579 1.392 3.694zM56.247 218.098l2.168-2.336 6.629 6.154-2.168 2.336-2.096-1.945-8.851 9.535c-1.062 1.144-1.837 2.237-2.324 3.279-0.492 1.047-0.747 2.034-0.764 2.961-0.017 0.936 0.178 1.81 0.584 2.622 0.411 0.816 0.989 1.57 1.733 2.261v0c0.774 0.718 1.582 1.273 2.423 1.665 0.842 0.401 1.722 0.57 2.641 0.509 0.919-0.062 1.884-0.38 2.897-0.954 1.008-0.578 2.076-1.475 3.206-2.692v0l8.851-9.534-2.212-2.054 2.169-2.336 6.629 6.154-2.169 2.336-1.818-1.688-8.573 9.236c-1.374 1.48-2.796 2.597-4.267 3.351-1.471 0.764-2.92 1.203-4.349 1.318-1.429 0.114-2.813-0.074-4.152-0.565-1.334-0.496-2.554-1.256-3.659-2.282v0c-1.08-1.003-1.907-2.138-2.48-3.404-0.574-1.276-0.854-2.619-0.841-4.029 0.013-1.41 0.331-2.855 0.953-4.335 0.622-1.47 1.593-2.916 2.912-4.337v0l8.804-9.484zM77.411 264.76l1.559-2.758 2.02 1.142 1.191-6.604-9.349-5.282-4.99 4.457 2.498 1.412-1.558 2.758-7.893-4.459 1.558-2.758 2.125 1.2 19.753-17.284 4.727 2.671-4.627 25.829 2.437 1.377-1.558 2.758zM85.121 240.34l-9.866 8.774 7.503 4.239zM113.746 278.197l-3.279-0.996 1.627-5.357c-0.727 0.793-1.528 1.431-2.403 1.915-0.882 0.482-1.801 0.824-2.758 1.026-0.961 0.194-1.943 0.26-2.945 0.199-1.002-0.061-1.982-0.238-2.941-0.53v0c-1.741-0.529-3.258-1.305-4.551-2.329-1.297-1.032-2.346-2.364-3.148-3.996-0.811-1.627-1.266-3.407-1.366-5.339-0.1-1.932 0.137-3.845 0.712-5.739v0c0.577-1.9 1.437-3.6 2.579-5.099 1.144-1.506 2.476-2.715 3.996-3.627 1.513-0.915 3.163-1.489 4.949-1.725 1.788-0.241 3.596-0.084 5.426 0.472v0c1.697 0.515 3.078 1.199 4.146 2.05 1.069 0.845 1.93 1.745 2.584 2.701 0.656 0.949 1.15 1.814 1.481 2.594v0l1.707 0.518-0.953 3.136-3.793-1.152c-0.374-1.578-1.095-2.953-2.163-4.123-1.061-1.169-2.402-1.986-4.024-2.451v0c-1.347-0.409-2.673-0.5-3.978-0.271-1.3 0.237-2.503 0.722-3.607 1.455-1.102 0.727-2.069 1.659-2.899 2.794-0.831 1.136-1.459 2.406-1.886 3.811v0c-0.475 1.563-0.671 3.09-0.589 4.578 0.088 1.491 0.388 2.769 0.897 3.833 0.514 1.072 1.247 2.052 2.2 2.938 0.959 0.888 2.118 1.539 3.478 1.952v0c2.256 0.685 4.275 0.698 6.058 0.039 1.776-0.661 3.307-2.067 4.591-4.217v0l-7.473-2.27 0.921-3.031 11.295 3.43zM122.685 254.28l0.151-3.184 9.035 0.428-0.151 3.184-2.856-0.135-0.616 12.995c-0.074 1.559 0.039 2.894 0.339 4.005 0.299 1.118 0.741 2.036 1.325 2.756 0.591 0.726 1.303 1.268 2.137 1.627 0.841 0.359 1.768 0.563 2.783 0.611v0c1.055 0.05 2.03-0.047 2.926-0.291 0.902-0.236 1.684-0.675 2.346-1.315 0.662-0.64 1.195-1.506 1.599-2.596 0.397-1.091 0.635-2.466 0.715-4.125v0l0.615-12.996-3.015-0.142 0.151-3.185 9.035 0.429-0.15 3.184-2.478-0.118-0.597 12.588c-0.096 2.017-0.462 3.788-1.099 5.313-0.631 1.532-1.456 2.803-2.475 3.812-1.019 1.009-2.198 1.757-3.537 2.246-1.339 0.482-2.762 0.687-4.267 0.615v0c-1.473-0.07-2.836-0.404-4.092-1.002-1.261-0.605-2.341-1.451-3.24-2.537-0.899-1.086-1.588-2.396-2.068-3.927-0.473-1.525-0.663-3.256-0.572-5.193v0l0.613-12.926zM168.952 276.296l-0.587-3.113 2.28-0.43-3.347-5.816-10.553 1.992-0.939 6.624 2.819-0.532 0.587 3.113-8.908 1.681-0.587-3.113 2.398-0.452 3.954-25.948 5.335-1.007 13.118 22.726 2.751-0.519 0.587 3.113zM159.099 252.66l-1.883 13.068 8.467-1.598zM172.856 250.114l-1.213-2.948 10.751-4.423c1.149-0.472 2.27-0.758 3.364-0.856 1.094-0.098 2.119 0.001 3.074 0.297 0.952 0.29 1.805 0.791 2.556 1.502 0.761 0.714 1.374 1.639 1.842 2.775v0c0.265 0.645 0.411 1.332 0.438 2.06 0.024 0.722-0.058 1.439-0.247 2.148-0.195 0.712-0.49 1.393-0.883 2.044-0.397 0.659-0.883 1.239-1.459 1.742v0c0.333 0.007 0.695 0.066 1.086 0.178 0.385 0.115 0.772 0.289 1.163 0.523 0.394 0.226 0.783 0.507 1.166 0.846 0.386 0.344 0.743 0.732 1.072 1.164v0l3.743 5.041 2.23-0.917 1.367 3.218-5.021 2.066-5.158-7.066c-0.935-1.26-1.898-2.074-2.89-2.442-0.998-0.365-2.12-0.291-3.366 0.222v0l-3.326 1.368 3.714 9.028 2.589-1.065 1.205 2.93-8.383 3.449-1.206-2.93 2.46-1.012-8.209-19.954zM183.201 245.858l-4.551 1.872 3.343 8.125 4.956-2.039c0.651-0.268 1.213-0.596 1.685-0.983 0.47-0.394 0.827-0.843 1.073-1.347 0.254-0.499 0.388-1.047 0.402-1.641 0.011-0.601-0.121-1.236-0.396-1.905v0c-0.528-1.284-1.322-2.124-2.383-2.52-1.069-0.4-2.446-0.254-4.129 0.438zM194.259 240.56l-1.826-2.613 8.524-5.958c1.045-0.73 2.136-1.291 3.274-1.68 1.137-0.39 2.285-0.62 3.442-0.692 1.159-0.081 2.312-0.008 3.459 0.22 1.147 0.227 2.25 0.599 3.308 1.115 1.058 0.517 2.055 1.173 2.992 1.968 0.928 0.794 1.759 1.716 2.493 2.767v0c0.746 1.067 1.334 2.175 1.764 3.324 0.429 1.159 0.708 2.329 0.837 3.511 0.129 1.182 0.107 2.356-0.066 3.522-0.177 1.161-0.499 2.277-0.965 3.349-0.465 1.062-1.076 2.06-1.833 2.994-0.757 0.934-1.658 1.766-2.703 2.497v0l-8.524 5.958-1.815-2.597 2.18-1.523-12.361-17.686zM202.963 234.477l-3.568 2.493 12.361 17.686 3.568-2.494c1.056-0.738 1.888-1.664 2.495-2.777 0.607-1.113 0.98-2.313 1.117-3.6 0.132-1.283 0.021-2.607-0.333-3.973-0.354-1.365-0.967-2.67-1.838-3.917v0c-0.86-1.23-1.864-2.238-3.013-3.023-1.148-0.785-2.344-1.331-3.587-1.637-1.248-0.302-2.498-0.357-3.748-0.164-1.247 0.199-2.398 0.667-3.454 1.406zM214.549 225.572l-2.223-2.284 6.395-6.226 2.224 2.284-1.906 1.855 15.052 15.46 1.905-1.856 2.21 2.27-6.395 6.227-2.21-2.27 1.906-1.856-15.052-15.459zM252.01 217.954l-2.597-1.814 1.328-1.903-6.46-1.813-6.148 8.804 3.963 5.392 1.642-2.353 2.597 1.814-5.189 7.432-2.598-1.813 1.398-2.001-15.326-21.308 3.108-4.451 25.272 7.063 1.602-2.295 2.598 1.813zM228.434 207.956l7.796 10.656 4.933-7.065zM242.929 180.732l-2.948-1.212 3.448-8.384 2.948 1.213-0.902 2.192 22.885 9.412-1.796 4.367-26.361 3.204 18.491 7.605 1.095-2.663 2.929 1.205-3.448 8.384-2.929-1.205 0.981-2.386-19.955-8.207-1.012 2.46-2.975-1.224 2.86-6.956 26.058-3.07-0.763-0.476-17.412-7.161z" fill="#000000" data-fill-palette-color="primary"></path><path d="M32.38 97.47L29.425 96.329 30.26 94.164 23.563 93.949 19.7 103.958 24.826 108.243 25.859 105.567 28.814 106.708 25.554 115.155 22.599 114.015 23.474 111.747 3.536 94.74 5.49 89.675 31.677 90.493 32.685 87.882 35.641 89.022ZM7.127 93.403L17.223 101.881 20.326 93.843ZM45.013 82.16L42.273 80.327C41.127 81.622 39.814 82.629 38.334 83.349 36.852 84.06 35.298 84.478 33.671 84.605 32.041 84.737 30.391 84.576 28.721 84.123 27.045 83.665 25.443 82.925 23.914 81.903V81.903C22.241 80.784 20.853 79.46 19.75 77.932 18.648 76.403 17.881 74.784 17.451 73.074 17.026 71.368 16.955 69.622 17.237 67.838 17.522 66.063 18.21 64.358 19.303 62.724V62.724C20.399 61.085 21.717 59.789 23.257 58.837 24.798 57.895 26.436 57.296 28.172 57.043 29.916 56.788 31.704 56.881 33.534 57.322 35.361 57.768 37.11 58.551 38.783 59.669V59.669C40.334 60.707 41.637 61.918 42.693 63.303 43.75 64.697 44.525 66.178 45.018 67.746 45.507 69.32 45.698 70.934 45.591 72.587 45.489 74.245 45.044 75.849 44.255 77.398V77.398C44.875 76.854 45.433 76.461 45.931 76.218 46.434 75.98 47.036 75.659 47.737 75.257 48.443 74.858 48.997 74.358 49.399 73.756V73.756C49.787 73.176 49.986 72.563 49.996 71.914 50.006 71.266 49.758 70.669 49.253 70.123V70.123L51.869 68.505C52.356 69.006 52.707 69.569 52.922 70.192 53.131 70.811 53.234 71.439 53.231 72.076 53.219 72.716 53.115 73.337 52.919 73.941 52.719 74.55 52.457 75.098 52.132 75.584V75.584C51.608 76.367 50.971 77.008 50.223 77.507 49.48 78.008 48.653 78.498 47.742 78.976 46.828 79.459 46.138 80.048 45.673 80.743V80.743C45.396 81.157 45.176 81.63 45.013 82.16ZM40.559 76.94V76.94C41.371 75.725 41.855 74.459 42.01 73.14 42.17 71.825 42.06 70.538 41.681 69.277 41.303 68.026 40.687 66.839 39.832 65.716 38.968 64.595 37.921 63.623 36.69 62.799V62.799C35.425 61.954 34.07 61.347 32.623 60.978 31.181 60.613 29.797 60.527 28.47 60.718 27.153 60.908 25.953 61.328 24.871 61.978 23.795 62.632 22.885 63.514 22.143 64.624V64.624C21.331 65.838 20.846 67.108 20.687 68.432 20.523 69.752 20.631 71.042 21.01 72.303 21.384 73.56 22.003 74.749 22.867 75.87 23.731 76.991 24.776 77.961 26.002 78.781V78.781C27.398 79.715 28.795 80.35 30.193 80.685 31.587 81.026 32.888 81.105 34.096 80.923 35.305 80.74 36.497 80.307 37.673 79.624 38.851 78.95 39.813 78.055 40.559 76.94ZM34.626 48.697L32.457 46.361 39.078 40.213 41.247 42.549 39.152 44.494 47.984 54.005C49.046 55.149 50.079 56.003 51.083 56.566 52.091 57.134 53.056 57.461 53.979 57.547 54.901 57.633 55.782 57.504 56.622 57.159 57.467 56.809 58.262 56.289 59.006 55.598V55.598C59.78 54.879 60.396 54.117 60.853 53.312 61.306 52.501 61.538 51.638 61.548 50.722 61.554 49.802 61.308 48.815 60.812 47.763 60.31 46.715 59.494 45.583 58.365 44.366V44.366L49.532 34.855 47.328 36.902 45.159 34.566 51.772 28.425 53.941 30.761 52.124 32.449 60.685 41.668C62.054 43.143 63.063 44.639 63.712 46.157 64.365 47.681 64.696 49.159 64.704 50.593 64.712 52.026 64.422 53.387 63.833 54.677 63.24 55.971 62.392 57.13 61.287 58.156V58.156C60.207 59.159 59.014 59.9 57.708 60.378 56.399 60.851 55.041 61.029 53.636 60.911 52.23 60.793 50.817 60.37 49.397 59.64 47.972 58.916 46.6 57.843 45.28 56.422V56.422L36.495 46.961ZM85.826 40.909L84.268 38.151 86.288 37.01 81.251 32.59 71.91 37.869 73.149 44.434 75.647 43.023 77.205 45.781 69.322 50.236 67.763 47.478 69.879 46.282 65.278 20.483 70.005 17.812 89.714 35.074 92.151 33.697 93.71 36.455ZM68.901 21.731L71.317 34.691 78.818 30.452ZM118.376 29.325L115.098 30.321 113.473 24.974C113.31 26.037 112.999 27.013 112.541 27.902 112.076 28.793 111.501 29.585 110.816 30.279 110.132 30.973 109.356 31.573 108.49 32.079 107.623 32.585 106.71 32.984 105.75 33.275V33.275C104.009 33.804 102.317 34.002 100.674 33.87 99.034 33.73 97.426 33.208 95.847 32.307 94.272 31.397 92.907 30.17 91.751 28.627 90.595 27.083 89.729 25.364 89.154 23.471V23.471C88.577 21.571 88.346 19.68 88.462 17.799 88.577 15.917 89.011 14.179 89.761 12.584 90.51 10.982 91.56 9.584 92.912 8.389 94.259 7.202 95.847 6.331 97.677 5.775V5.775C99.368 5.261 100.892 5.059 102.25 5.166 103.617 5.279 104.834 5.548 105.9 5.973 106.973 6.397 107.861 6.842 108.565 7.309V7.309L110.28 6.787 111.233 9.923 107.439 11.076C106.251 9.972 104.89 9.23 103.358 8.849 101.827 8.467 100.258 8.534 98.651 9.05V9.05C97.304 9.459 96.156 10.124 95.207 11.044 94.25 11.959 93.518 13.025 93.013 14.24 92.503 15.464 92.218 16.776 92.158 18.175 92.099 19.581 92.283 20.986 92.709 22.391V22.391C93.184 23.954 93.873 25.33 94.776 26.521 95.671 27.706 96.626 28.6 97.641 29.201 98.657 29.801 99.81 30.204 101.1 30.409 102.385 30.616 103.707 30.512 105.067 30.099V30.099C107.322 29.414 109.005 28.303 110.113 26.765 111.224 25.234 111.715 23.218 111.586 20.716V20.716L104.123 22.984 103.202 19.953 114.488 16.524ZM120.296 4.435L120.145 1.251 129.17 0.822 129.321 4.006 126.466 4.142 127.082 17.107C127.156 18.666 127.395 19.985 127.798 21.062 128.202 22.147 128.729 23.019 129.379 23.68 130.028 24.341 130.785 24.81 131.649 25.088 132.52 25.366 133.463 25.48 134.478 25.432V25.432C135.533 25.382 136.495 25.197 137.364 24.876 138.232 24.549 138.966 24.039 139.565 23.346 140.163 22.646 140.612 21.733 140.911 20.609 141.203 19.485 141.31 18.093 141.231 16.435V16.435L140.615 3.47 137.61 3.612 137.459 0.428 146.474 0 146.625 3.184 144.147 3.302 144.745 15.869C144.84 17.879 144.646 19.674 144.163 21.252 143.679 22.838 142.979 24.181 142.06 25.281 141.142 26.382 140.042 27.236 138.761 27.842 137.474 28.448 136.077 28.787 134.571 28.859V28.859C133.098 28.928 131.709 28.725 130.403 28.249 129.097 27.766 127.945 27.026 126.947 26.029 125.949 25.033 125.142 23.798 124.527 22.325 123.905 20.852 123.548 19.147 123.456 17.21V17.21L122.844 4.314ZM164.45 31.5L165.037 28.387 167.318 28.818 166.317 22.192 155.775 20.203 152.488 26.02 155.307 26.552 154.72 29.665 145.821 27.986 146.409 24.873 148.797 25.324 161.916 2.638 167.251 3.644 171.184 29.547 173.935 30.066 173.348 33.179ZM163.881 5.928L157.369 17.392 165.837 18.989ZM183.466 10.855L184.679 7.907 195.421 12.325C196.563 12.795 197.558 13.38 198.405 14.08 199.251 14.78 199.908 15.567 200.374 16.441 200.846 17.318 201.1 18.273 201.134 19.307 201.172 20.349 200.959 21.436 200.494 22.566V22.566C200.226 23.217 199.847 23.807 199.356 24.338 198.862 24.875 198.299 25.325 197.668 25.69 197.034 26.062 196.346 26.339 195.603 26.521 194.864 26.713 194.112 26.784 193.35 26.736V26.736C193.582 26.975 193.794 27.271 193.987 27.623 194.179 27.975 194.336 28.37 194.458 28.808 194.571 29.249 194.647 29.726 194.688 30.238 194.723 30.748 194.7 31.274 194.621 31.815V31.815L193.741 38.013 195.971 38.93 194.677 42.179 189.656 40.114 190.956 31.482C191.184 29.931 191.077 28.674 190.634 27.709 190.182 26.747 189.332 26.01 188.086 25.497V25.497L184.769 24.133 181.059 33.152 183.648 34.217 182.443 37.147 174.069 33.702 175.274 30.773 177.724 31.781 185.917 11.863ZM193.794 15.103L189.252 13.235 185.913 21.351 190.87 23.39C191.515 23.655 192.143 23.813 192.754 23.863 193.359 23.911 193.928 23.847 194.46 23.671 194.994 23.488 195.476 23.191 195.904 22.778 196.332 22.366 196.684 21.824 196.959 21.155V21.155C197.487 19.871 197.511 18.714 197.03 17.683 196.555 16.655 195.477 15.795 193.794 15.103ZM210.718 23.606L212.544 20.994 221.052 26.94C222.097 27.67 222.998 28.502 223.755 29.436 224.507 30.367 225.119 31.362 225.594 32.423 226.059 33.485 226.383 34.591 226.568 35.741 226.749 36.896 226.779 38.059 226.657 39.23 226.536 40.401 226.262 41.559 225.835 42.703 225.405 43.852 224.824 44.949 224.094 45.994V45.994C223.352 47.056 222.513 47.989 221.578 48.794 220.647 49.593 219.648 50.257 218.583 50.784 217.518 51.312 216.409 51.692 215.258 51.925 214.107 52.157 212.951 52.24 211.79 52.174 210.628 52.099 209.48 51.869 208.348 51.483 207.211 51.093 206.12 50.533 205.074 49.802V49.802L196.566 43.857 198.381 41.26 200.553 42.778 212.89 25.124ZM219.406 29.678L215.845 27.19 203.509 44.843 207.069 47.331C208.125 48.069 209.28 48.532 210.534 48.72 211.788 48.908 213.039 48.846 214.285 48.534 215.536 48.217 216.741 47.658 217.901 46.856 219.057 46.06 220.071 45.038 220.942 43.792V43.792C221.802 42.562 222.401 41.275 222.74 39.932 223.083 38.583 223.184 37.273 223.045 36.001 222.905 34.728 222.527 33.541 221.912 32.438 221.297 31.336 220.462 30.416 219.406 29.678ZM234.798 41.733L237.022 39.449 243.402 45.662 241.178 47.946 239.28 46.098 224.255 61.528 226.154 63.377 223.944 65.646 217.563 59.433 219.773 57.164 221.672 59.012 236.696 43.582ZM235.427 82.036L238.024 80.223 239.353 82.126 243.274 76.692 237.134 67.894 230.715 69.75 232.357 72.103 229.759 73.916 224.577 66.491 227.174 64.678 228.565 66.671 253.812 59.643 256.919 64.095 241.605 85.352 243.207 87.648 240.609 89.461ZM252.913 63.368L240.24 67.002 245.172 74.068ZM270.077 96.792L273.025 95.58 276.464 103.945 273.516 105.157 272.615 102.965 249.765 112.358 247.974 108 264.436 87.209 245.972 94.799 247.063 97.453 244.133 98.657 240.694 90.291 243.624 89.087 244.601 91.464 264.521 83.275 263.513 80.825 266.499 79.597 269.354 86.544 253.004 107.031 253.88 106.832 271.266 99.685Z" fill="#000000" data-fill-palette-color="primary"></path><path d="M2.582 144.529c0-6 4.864-10.864 10.864-10.864 6 0 10.864 4.864 10.864 10.864 0 6-4.864 10.864-10.864 10.864-6 0-10.864-4.864-10.864-10.864zM253.619 144.529c0-6 4.864-10.864 10.865-10.864 6 0 10.864 4.864 10.864 10.864 0 6-4.864 10.864-10.864 10.864-6 0-10.864-4.864-10.865-10.864z" fill="#000000" data-fill-palette-color="primary"></path></svg></g></svg></g></svg></g></svg></g><defs></defs></svg><rect width="280" height="280" fill="none" stroke="none" visibility="hidden"></rect></g></svg></g></svg>